<mxfile host="app.diagrams.net" modified="2024-06-04T18:14:49.283Z" agent="Mozilla/5.0 (Macintosh; Intel Mac OS X 10_15_7) AppleWebKit/537.36 (KHTML, like Gecko) Chrome/124.0.0.0 Safari/537.36" etag="UmAmGBKmgSccQXOpjt3S" version="24.4.4" type="github">
  <diagram id="HfjM1wZW--X67TTqQhMb" name="Page-1">
    <mxGraphModel dx="933" dy="660" grid="1" gridSize="10" guides="1" tooltips="1" connect="1" arrows="1" fold="1" page="1" pageScale="1" pageWidth="850" pageHeight="1100" math="0" shadow="0">
      <root>
        <mxCell id="0" />
        <mxCell id="1" parent="0" />
        <mxCell id="et5guZH8IR5iMEiWxP18-1" value="Hospitalized for COVID-19, screened for enrollment&lt;div&gt;&lt;br/&gt;&lt;/div&gt;" style="rounded=0;whiteSpace=wrap;html=1;" parent="1" vertex="1">
          <mxGeometry x="340" y="50" width="120" height="60" as="geometry" />
        </mxCell>
        <mxCell id="et5guZH8IR5iMEiWxP18-2" value="" style="endArrow=none;html=1;rounded=0;exitX=0.5;exitY=1;exitDx=0;exitDy=0;endFill=0;entryX=0.5;entryY=0;entryDx=0;entryDy=0;" parent="1" source="et5guZH8IR5iMEiWxP18-1" target="et5guZH8IR5iMEiWxP18-10" edge="1">
          <mxGeometry width="50" height="50" relative="1" as="geometry">
            <mxPoint x="380" y="340" as="sourcePoint" />
            <mxPoint x="400" y="250" as="targetPoint" />
          </mxGeometry>
        </mxCell>
        <mxCell id="et5guZH8IR5iMEiWxP18-4" value="&lt;div style=&quot;text-align: left;&quot;&gt;&lt;span style=&quot;background-color: initial;&quot;&gt;&lt;b&gt;4978 &lt;/b&gt;Excluded&lt;br&gt;&lt;/span&gt;&lt;/div&gt;&lt;div style=&quot;text-align: left;&quot;&gt;&lt;span style=&quot;background-color: initial;&quot;&gt;&lt;b&gt;&lt;span style=&quot;white-space: pre;&quot;&gt;&#x9;&lt;/span&gt;3565&lt;/b&gt;&amp;nbsp; Ineligible&lt;/span&gt;&lt;/div&gt;&lt;div style=&quot;text-align: left;&quot;&gt;&lt;span style=&quot;background-color: initial;&quot;&gt;&lt;span style=&quot;white-space: pre;&quot;&gt;&#x9;&lt;span style=&quot;white-space: pre;&quot;&gt;&#x9;&lt;/span&gt;&lt;/span&gt;&lt;b&gt;1914&lt;/b&gt;&amp;nbsp; Failed exclusion&lt;sup style=&quot;&quot;&gt;&lt;font style=&quot;font-size: 8px;&quot;&gt;a&lt;/font&gt;&lt;/sup&gt;&lt;/span&gt;&lt;/div&gt;&lt;div style=&quot;text-align: left;&quot;&gt;&lt;span style=&quot;background-color: initial;&quot;&gt;&lt;span style=&quot;white-space: pre;&quot;&gt;&#x9;&lt;/span&gt;&lt;span style=&quot;white-space: pre;&quot;&gt;&#x9;&lt;span style=&quot;white-space: pre;&quot;&gt;&#x9;&lt;/span&gt;&lt;/span&gt;&lt;b&gt;415&lt;/b&gt;&amp;nbsp; Symptoms &amp;gt;14 days&lt;/span&gt;&lt;br&gt;&lt;/div&gt;&lt;div style=&quot;text-align: left;&quot;&gt;&lt;span style=&quot;white-space: pre;&quot;&gt;&#x9;&lt;/span&gt;&lt;span style=&quot;white-space: pre;&quot;&gt;&#x9;&lt;span style=&quot;white-space: pre;&quot;&gt;&#x9;&lt;/span&gt;&lt;/span&gt;&lt;b&gt;310&lt;/b&gt;&amp;nbsp; Trial-specific exclusions&lt;span style=&quot;background-color: initial;&quot;&gt;&lt;br&gt;&lt;/span&gt;&lt;/div&gt;&lt;div style=&quot;text-align: left;&quot;&gt;&lt;span style=&quot;white-space: pre;&quot;&gt;&#x9;&lt;/span&gt;&lt;span style=&quot;white-space: pre;&quot;&gt;&#x9;&lt;span style=&quot;white-space: pre;&quot;&gt;&#x9;&lt;/span&gt;&lt;/span&gt;&lt;b&gt;269&lt;/b&gt;&amp;nbsp; Clinician decision&lt;/div&gt;&lt;div style=&quot;text-align: left;&quot;&gt;&lt;b&gt;&lt;span style=&quot;white-space: pre;&quot;&gt;&#x9;&lt;/span&gt;&lt;span style=&quot;white-space: pre;&quot;&gt;&#x9;&lt;span style=&quot;white-space: pre;&quot;&gt;&#x9;&lt;/span&gt;&lt;/span&gt;250&lt;/b&gt;&amp;nbsp; Renal replacement therapy&lt;br&gt;&lt;/div&gt;&lt;div style=&quot;text-align: left; line-height: 100%;&quot;&gt;&lt;span style=&quot;white-space: pre;&quot;&gt;&#x9;&lt;/span&gt;&lt;span style=&quot;white-space: pre;&quot;&gt;&#x9;&lt;span style=&quot;white-space: pre;&quot;&gt;&#x9;&lt;/span&gt;&lt;/span&gt;&lt;b&gt;210&lt;/b&gt;&amp;nbsp; Hospitalized &amp;gt;72 hr&lt;/div&gt;&lt;div style=&quot;text-align: left; line-height: 120%;&quot;&gt;&lt;span style=&quot;white-space: pre;&quot;&gt;&#x9;&lt;/span&gt;&lt;span style=&quot;white-space: pre;&quot;&gt;&#x9;&lt;span style=&quot;white-space: pre;&quot;&gt;&#x9;&lt;/span&gt;&lt;/span&gt;&lt;b&gt;156&lt;/b&gt;&amp;nbsp; Not pursuing full care&lt;sup&gt;&lt;font style=&quot;font-size: 8px;&quot;&gt;b&lt;/font&gt;&lt;/sup&gt;&lt;span style=&quot;background-color: initial; white-space: pre;&quot;&gt;&#x9;&lt;/span&gt;&lt;/div&gt;&lt;div style=&quot;text-align: left;&quot;&gt;&lt;span style=&quot;background-color: initial; white-space: pre;&quot;&gt;&#x9;&lt;/span&gt;&lt;span style=&quot;background-color: initial; white-space: pre;&quot;&gt;&#x9;&lt;span style=&quot;white-space: pre;&quot;&gt;&#x9;&lt;/span&gt;&lt;/span&gt;&lt;b style=&quot;background-color: initial;&quot;&gt;104&lt;/b&gt;&lt;span style=&quot;background-color: initial;&quot;&gt;&amp;nbsp; Sensitivity to study medication&lt;/span&gt;&lt;span style=&quot;background-color: initial; white-space: pre;&quot;&gt;&#x9;&lt;/span&gt;&lt;/div&gt;&lt;div style=&quot;text-align: left;&quot;&gt;&lt;span style=&quot;background-color: initial;&quot;&gt;&lt;span style=&quot;white-space: pre;&quot;&gt;&#x9;&lt;/span&gt;&lt;span style=&quot;white-space: pre;&quot;&gt;&#x9;&lt;/span&gt;&amp;nbsp; &lt;span style=&quot;white-space: pre;&quot;&gt;&#x9;&lt;/span&gt;&amp;nbsp;&amp;nbsp;&lt;b&gt;89&lt;/b&gt;&amp;nbsp; Pregnancy&lt;/span&gt;&lt;/div&gt;&lt;div style=&quot;text-align: left;&quot;&gt;&lt;span style=&quot;white-space: pre;&quot;&gt;&#x9;&lt;/span&gt;&lt;span style=&quot;white-space: pre;&quot;&gt;&#x9;&lt;/span&gt;&amp;nbsp;&amp;nbsp;&lt;span style=&quot;white-space: pre;&quot;&gt;&#x9;&lt;/span&gt;&amp;nbsp;&amp;nbsp;&lt;b&gt;81&lt;/b&gt;&amp;nbsp;&amp;nbsp;Severe renal artery stenosis&lt;span style=&quot;background-color: initial;&quot;&gt;&lt;br&gt;&lt;/span&gt;&lt;/div&gt;&lt;div style=&quot;text-align: left;&quot;&gt;&lt;span style=&quot;white-space: pre;&quot;&gt;&#x9;&lt;/span&gt;&amp;nbsp;&amp;nbsp;&lt;span style=&quot;white-space: pre;&quot;&gt;&#x9;&lt;/span&gt;&amp;nbsp;&amp;nbsp;&lt;span style=&quot;white-space: pre;&quot;&gt;&#x9;&lt;/span&gt;&amp;nbsp;&amp;nbsp;&lt;b&gt;67&lt;/b&gt;&amp;nbsp; Breastfeeding&lt;br&gt;&lt;/div&gt;&lt;div style=&quot;text-align: left;&quot;&gt;&lt;span style=&quot;white-space: pre;&quot;&gt;&#x9;&lt;/span&gt;&lt;span style=&quot;white-space: pre;&quot;&gt;&#x9;&lt;/span&gt;&amp;nbsp;&amp;nbsp;&lt;span style=&quot;white-space: pre;&quot;&gt;&#x9;&lt;/span&gt;&amp;nbsp;&amp;nbsp;&lt;b&gt;43&lt;/b&gt;&amp;nbsp; Prisoners&lt;br&gt;&lt;/div&gt;&lt;div style=&quot;text-align: left;&quot;&gt;&lt;span style=&quot;background-color: initial;&quot;&gt;&lt;span style=&quot;white-space: pre;&quot;&gt;&#x9;&lt;/span&gt;&lt;span style=&quot;white-space: pre;&quot;&gt;&#x9;&lt;/span&gt;&amp;nbsp; &lt;span style=&quot;white-space: pre;&quot;&gt;&#x9;&lt;/span&gt;&amp;nbsp;&amp;nbsp;&lt;b&gt;18&lt;/b&gt;&amp;nbsp; Hemodynamic instability&lt;/span&gt;&lt;/div&gt;&lt;div style=&quot;text-align: left;&quot;&gt;&lt;span style=&quot;background-color: initial;&quot;&gt;&lt;span style=&quot;white-space: pre;&quot;&gt;&#x9;&lt;/span&gt;&lt;span style=&quot;white-space: pre;&quot;&gt;&#x9;&lt;/span&gt;&amp;nbsp; &amp;nbsp;&lt;span style=&quot;white-space: pre;&quot;&gt;&#x9;&lt;/span&gt;&amp;nbsp; &amp;nbsp;&amp;nbsp;&lt;b&gt;9&lt;/b&gt;&amp;nbsp; LV obstruction&lt;/span&gt;&lt;/div&gt;&lt;div style=&quot;text-align: left;&quot;&gt;&lt;span style=&quot;background-color: initial;&quot;&gt;&lt;span style=&quot;white-space: pre;&quot;&gt;&#x9;&lt;/span&gt;&lt;span style=&quot;white-space: pre;&quot;&gt;&#x9;&lt;/span&gt;&amp;nbsp; &amp;nbsp; &amp;nbsp; &amp;nbsp; &amp;nbsp; &amp;nbsp;&amp;nbsp;&lt;b&gt;5&lt;/b&gt;&amp;nbsp; Enrolled in another RAAS trial&lt;/span&gt;&lt;/div&gt;&lt;div style=&quot;text-align: left;&quot;&gt;&lt;span style=&quot;white-space: pre;&quot;&gt;&#x9;&lt;span style=&quot;white-space: pre;&quot;&gt;&#x9;&lt;/span&gt;&lt;/span&gt;&lt;b&gt;1651&lt;/b&gt;&amp;nbsp; Failed inclusion: Not hypoxemic&lt;br&gt;&lt;/div&gt;&lt;div style=&quot;text-align: left;&quot;&gt;&lt;span style=&quot;border-color: var(--border-color);&quot;&gt;&lt;b&gt;&lt;span style=&quot;white-space: pre;&quot;&gt;&#x9;&lt;/span&gt;703&lt;/b&gt;&amp;nbsp; Declined&lt;br&gt;&lt;/span&gt;&lt;/div&gt;&lt;div style=&quot;text-align: left;&quot;&gt;&lt;span style=&quot;background-color: initial;&quot;&gt;&lt;b&gt;&lt;span style=&quot;white-space: pre;&quot;&gt;&#x9;&lt;/span&gt;339&lt;/b&gt;&amp;nbsp; Not approached&lt;/span&gt;&lt;/div&gt;&lt;div style=&quot;text-align: left;&quot;&gt;&lt;span style=&quot;background-color: initial;&quot;&gt;&lt;b&gt;&lt;span style=&quot;white-space: pre;&quot;&gt;&#x9;&lt;/span&gt;371&lt;/b&gt;&amp;nbsp; Other&lt;sup&gt;&lt;font style=&quot;font-size: 8px;&quot;&gt;c&lt;/font&gt;&lt;/sup&gt;&lt;/span&gt;&lt;br&gt;&lt;/div&gt;" style="rounded=0;whiteSpace=wrap;html=1;" parent="1" vertex="1">
          <mxGeometry x="550" y="40" width="300" height="320" as="geometry" />
        </mxCell>
        <mxCell id="et5guZH8IR5iMEiWxP18-10" value="Randomized&lt;sup style=&quot;&quot;&gt;&lt;font style=&quot;font-size: 8px;&quot;&gt;d&lt;/font&gt;&lt;/sup&gt;&lt;div&gt;&lt;b&gt;899&lt;/b&gt;&lt;/div&gt;" style="rounded=0;whiteSpace=wrap;html=1;" parent="1" vertex="1">
          <mxGeometry x="340" y="300" width="120" height="50" as="geometry" />
        </mxCell>
        <mxCell id="et5guZH8IR5iMEiWxP18-12" value="" style="endArrow=none;html=1;rounded=0;entryX=0.5;entryY=1;entryDx=0;entryDy=0;" parent="1" target="et5guZH8IR5iMEiWxP18-10" edge="1">
          <mxGeometry width="50" height="50" relative="1" as="geometry">
            <mxPoint x="400" y="410" as="sourcePoint" />
            <mxPoint x="430" y="330" as="targetPoint" />
          </mxGeometry>
        </mxCell>
        <mxCell id="et5guZH8IR5iMEiWxP18-16" value="&lt;div style=&quot;&quot;&gt;&lt;span style=&quot;background-color: initial;&quot;&gt;TRV-027&lt;/span&gt;&lt;br&gt;&lt;/div&gt;&lt;div style=&quot;&quot;&gt;&lt;b&gt;149&lt;/b&gt;&lt;/div&gt;" style="rounded=0;whiteSpace=wrap;html=1;align=center;" parent="1" vertex="1">
          <mxGeometry x="110" y="540" width="100" height="40" as="geometry" />
        </mxCell>
        <mxCell id="et5guZH8IR5iMEiWxP18-22" style="edgeStyle=orthogonalEdgeStyle;rounded=0;orthogonalLoop=1;jettySize=auto;html=1;exitX=0.5;exitY=1;exitDx=0;exitDy=0;endArrow=none;endFill=0;" parent="1" edge="1">
          <mxGeometry relative="1" as="geometry">
            <mxPoint x="160" y="590" as="sourcePoint" />
            <mxPoint x="160" y="590" as="targetPoint" />
          </mxGeometry>
        </mxCell>
        <mxCell id="et5guZH8IR5iMEiWxP18-33" value="" style="endArrow=classic;html=1;rounded=0;" parent="1" edge="1">
          <mxGeometry width="50" height="50" relative="1" as="geometry">
            <mxPoint x="400" y="210" as="sourcePoint" />
            <mxPoint x="550" y="210" as="targetPoint" />
            <Array as="points">
              <mxPoint x="490" y="210" />
              <mxPoint x="530" y="210" />
            </Array>
          </mxGeometry>
        </mxCell>
        <mxCell id="jMuF3EqlF6J_qGCGLpIN-3" value="&amp;nbsp;TRV-027&lt;div&gt;&lt;b&gt;147&lt;/b&gt;&lt;/div&gt;" style="rounded=0;whiteSpace=wrap;html=1;" parent="1" vertex="1">
          <mxGeometry x="590" y="540" width="100" height="40" as="geometry" />
        </mxCell>
        <mxCell id="jMuF3EqlF6J_qGCGLpIN-4" value="&amp;nbsp;TXA-127&lt;div&gt;&lt;b&gt;175&lt;/b&gt;&lt;/div&gt;" style="rounded=0;whiteSpace=wrap;html=1;" parent="1" vertex="1">
          <mxGeometry x="490" y="540" width="100" height="40" as="geometry" />
        </mxCell>
        <mxCell id="agvJTrhW3Z4hry4g2v_m-5" value="Fostamatinib&lt;div&gt;&lt;b&gt;206&lt;/b&gt;&lt;/div&gt;" style="rounded=0;whiteSpace=wrap;html=1;" parent="1" vertex="1">
          <mxGeometry x="690" y="540" width="100" height="40" as="geometry" />
        </mxCell>
        <mxCell id="agvJTrhW3Z4hry4g2v_m-13" value="" style="endArrow=none;html=1;rounded=0;" parent="1" edge="1">
          <mxGeometry width="50" height="50" relative="1" as="geometry">
            <mxPoint x="160" y="410" as="sourcePoint" />
            <mxPoint x="640" y="410" as="targetPoint" />
          </mxGeometry>
        </mxCell>
        <mxCell id="agvJTrhW3Z4hry4g2v_m-27" value="" style="endArrow=classic;html=1;rounded=0;" parent="1" edge="1">
          <mxGeometry width="50" height="50" relative="1" as="geometry">
            <mxPoint x="159.5" y="410" as="sourcePoint" />
            <mxPoint x="159.5" y="440" as="targetPoint" />
          </mxGeometry>
        </mxCell>
        <mxCell id="yUjiA-JmrCVDI_Teasnt-3" value="" style="endArrow=classic;html=1;rounded=0;" edge="1" parent="1">
          <mxGeometry width="50" height="50" relative="1" as="geometry">
            <mxPoint x="639.5" y="410" as="sourcePoint" />
            <mxPoint x="639.5" y="440" as="targetPoint" />
          </mxGeometry>
        </mxCell>
        <mxCell id="yUjiA-JmrCVDI_Teasnt-5" value="" style="rounded=1;whiteSpace=wrap;html=1;dashed=1;" vertex="1" parent="1">
          <mxGeometry x="10" y="810" width="230" height="90" as="geometry" />
        </mxCell>
        <mxCell id="yUjiA-JmrCVDI_Teasnt-6" value="&lt;font style=&quot;font-size: 12px;&quot;&gt;Placebo&lt;/font&gt;&lt;div&gt;&lt;span style=&quot;background-color: initial;&quot;&gt;TXA-127&lt;/span&gt;&lt;div&gt;&lt;font style=&quot;font-size: 12px;&quot;&gt;&lt;b&gt;173&lt;/b&gt;&lt;/font&gt;&lt;/div&gt;&lt;/div&gt;" style="rounded=0;whiteSpace=wrap;html=1;" vertex="1" parent="1">
          <mxGeometry x="130" y="830" width="100" height="50" as="geometry" />
        </mxCell>
        <mxCell id="yUjiA-JmrCVDI_Teasnt-7" value="TXA-127 Trial Analysis" style="text;html=1;strokeColor=none;fillColor=none;align=center;verticalAlign=middle;whiteSpace=wrap;rounded=0;dashed=1;" vertex="1" parent="1">
          <mxGeometry x="50" y="880" width="150" height="20" as="geometry" />
        </mxCell>
        <mxCell id="yUjiA-JmrCVDI_Teasnt-8" value="&lt;div style=&quot;&quot;&gt;&lt;span style=&quot;background-color: initial;&quot;&gt;Active&lt;/span&gt;&lt;/div&gt;&lt;div style=&quot;&quot;&gt;&lt;span style=&quot;background-color: initial;&quot;&gt;TXA-127&lt;/span&gt;&lt;/div&gt;&lt;div style=&quot;&quot;&gt;&lt;b&gt;170&lt;/b&gt;&lt;/div&gt;" style="rounded=0;whiteSpace=wrap;html=1;align=center;" vertex="1" parent="1">
          <mxGeometry x="20" y="830" width="100" height="50" as="geometry" />
        </mxCell>
        <mxCell id="yUjiA-JmrCVDI_Teasnt-15" value="&lt;font style=&quot;font-size: 12px;&quot;&gt;Placebo&lt;br&gt;&lt;/font&gt;&lt;div&gt;&lt;b&gt;367&lt;/b&gt;&lt;/div&gt;" style="rounded=0;whiteSpace=wrap;html=1;" vertex="1" parent="1">
          <mxGeometry x="590" y="440" width="100" height="50" as="geometry" />
        </mxCell>
        <mxCell id="yUjiA-JmrCVDI_Teasnt-16" value="&lt;div style=&quot;&quot;&gt;&lt;span style=&quot;background-color: initial;&quot;&gt;TXA-127&lt;/span&gt;&lt;/div&gt;&lt;div style=&quot;&quot;&gt;&lt;b&gt;176&lt;/b&gt;&lt;/div&gt;" style="rounded=0;whiteSpace=wrap;html=1;align=center;" vertex="1" parent="1">
          <mxGeometry x="10" y="540" width="100" height="40" as="geometry" />
        </mxCell>
        <mxCell id="yUjiA-JmrCVDI_Teasnt-17" value="&lt;div style=&quot;&quot;&gt;&lt;span style=&quot;background-color: initial;&quot;&gt;Fostamatinib&lt;/span&gt;&lt;/div&gt;&lt;div style=&quot;&quot;&gt;&lt;b&gt;207&lt;/b&gt;&lt;/div&gt;" style="rounded=0;whiteSpace=wrap;html=1;align=center;" vertex="1" parent="1">
          <mxGeometry x="210" y="540" width="98" height="40" as="geometry" />
        </mxCell>
        <mxCell id="yUjiA-JmrCVDI_Teasnt-82" value="117" style="rounded=0;whiteSpace=wrap;html=1;" vertex="1" parent="1">
          <mxGeometry x="590" y="580" width="100" height="20" as="geometry" />
        </mxCell>
        <mxCell id="yUjiA-JmrCVDI_Teasnt-83" value="36" style="rounded=0;whiteSpace=wrap;html=1;" vertex="1" parent="1">
          <mxGeometry x="490" y="580" width="100" height="20" as="geometry" />
        </mxCell>
        <mxCell id="yUjiA-JmrCVDI_Teasnt-84" value="2" style="rounded=0;whiteSpace=wrap;html=1;" vertex="1" parent="1">
          <mxGeometry x="690" y="580" width="100" height="20" as="geometry" />
        </mxCell>
        <mxCell id="yUjiA-JmrCVDI_Teasnt-86" value="8" style="rounded=0;whiteSpace=wrap;html=1;" vertex="1" parent="1">
          <mxGeometry x="590" y="600" width="100" height="20" as="geometry" />
        </mxCell>
        <mxCell id="yUjiA-JmrCVDI_Teasnt-87" value="117" style="rounded=0;whiteSpace=wrap;html=1;" vertex="1" parent="1">
          <mxGeometry x="490" y="600" width="100" height="20" as="geometry" />
        </mxCell>
        <mxCell id="yUjiA-JmrCVDI_Teasnt-88" value="2" style="rounded=0;whiteSpace=wrap;html=1;" vertex="1" parent="1">
          <mxGeometry x="690" y="600" width="100" height="20" as="geometry" />
        </mxCell>
        <mxCell id="yUjiA-JmrCVDI_Teasnt-90" value="2" style="rounded=0;whiteSpace=wrap;html=1;" vertex="1" parent="1">
          <mxGeometry x="590" y="620" width="100" height="20" as="geometry" />
        </mxCell>
        <mxCell id="yUjiA-JmrCVDI_Teasnt-91" value="2" style="rounded=0;whiteSpace=wrap;html=1;" vertex="1" parent="1">
          <mxGeometry x="490" y="620" width="100" height="20" as="geometry" />
        </mxCell>
        <mxCell id="yUjiA-JmrCVDI_Teasnt-92" value="182" style="rounded=0;whiteSpace=wrap;html=1;" vertex="1" parent="1">
          <mxGeometry x="690" y="620" width="100" height="20" as="geometry" />
        </mxCell>
        <mxCell id="yUjiA-JmrCVDI_Teasnt-95" value="20" style="rounded=0;whiteSpace=wrap;html=1;" vertex="1" parent="1">
          <mxGeometry x="590" y="640" width="100" height="20" as="geometry" />
        </mxCell>
        <mxCell id="yUjiA-JmrCVDI_Teasnt-96" value="20" style="rounded=0;whiteSpace=wrap;html=1;" vertex="1" parent="1">
          <mxGeometry x="490" y="640" width="100" height="20" as="geometry" />
        </mxCell>
        <mxCell id="yUjiA-JmrCVDI_Teasnt-97" value="20" style="rounded=0;whiteSpace=wrap;html=1;" vertex="1" parent="1">
          <mxGeometry x="690" y="640" width="100" height="20" as="geometry" />
        </mxCell>
        <mxCell id="yUjiA-JmrCVDI_Teasnt-98" value="mITT&lt;div&gt;Exclusions&lt;/div&gt;" style="rounded=0;whiteSpace=wrap;html=1;" vertex="1" parent="1">
          <mxGeometry x="350" y="680" width="100" height="40" as="geometry" />
        </mxCell>
        <mxCell id="yUjiA-JmrCVDI_Teasnt-149" style="edgeStyle=orthogonalEdgeStyle;rounded=0;orthogonalLoop=1;jettySize=auto;html=1;entryX=0.75;entryY=0;entryDx=0;entryDy=0;" edge="1" parent="1" source="yUjiA-JmrCVDI_Teasnt-99" target="yUjiA-JmrCVDI_Teasnt-134">
          <mxGeometry relative="1" as="geometry">
            <Array as="points">
              <mxPoint x="560" y="780" />
              <mxPoint x="433" y="780" />
            </Array>
          </mxGeometry>
        </mxCell>
        <mxCell id="yUjiA-JmrCVDI_Teasnt-99" value="2" style="rounded=0;whiteSpace=wrap;html=1;" vertex="1" parent="1">
          <mxGeometry x="590" y="690" width="100" height="20" as="geometry" />
        </mxCell>
        <mxCell id="yUjiA-JmrCVDI_Teasnt-153" style="edgeStyle=orthogonalEdgeStyle;rounded=0;orthogonalLoop=1;jettySize=auto;html=1;entryX=0.75;entryY=0;entryDx=0;entryDy=0;" edge="1" parent="1" source="yUjiA-JmrCVDI_Teasnt-100" target="yUjiA-JmrCVDI_Teasnt-5">
          <mxGeometry relative="1" as="geometry">
            <Array as="points">
              <mxPoint x="540" y="760" />
              <mxPoint x="183" y="760" />
            </Array>
          </mxGeometry>
        </mxCell>
        <mxCell id="yUjiA-JmrCVDI_Teasnt-100" value="2" style="rounded=0;whiteSpace=wrap;html=1;" vertex="1" parent="1">
          <mxGeometry x="490" y="690" width="100" height="20" as="geometry" />
        </mxCell>
        <mxCell id="yUjiA-JmrCVDI_Teasnt-101" value="5" style="rounded=0;whiteSpace=wrap;html=1;" vertex="1" parent="1">
          <mxGeometry x="690" y="690" width="100" height="20" as="geometry" />
        </mxCell>
        <mxCell id="yUjiA-JmrCVDI_Teasnt-102" value="&lt;font style=&quot;font-size: 12px;&quot;&gt;Active&lt;br&gt;&lt;/font&gt;&lt;div&gt;&lt;font style=&quot;font-size: 12px;&quot;&gt;&lt;b&gt;532&lt;/b&gt;&lt;/font&gt;&lt;/div&gt;" style="rounded=0;whiteSpace=wrap;html=1;" vertex="1" parent="1">
          <mxGeometry x="110" y="440" width="100" height="50" as="geometry" />
        </mxCell>
        <mxCell id="yUjiA-JmrCVDI_Teasnt-103" value="" style="endArrow=classic;html=1;rounded=0;" edge="1" parent="1">
          <mxGeometry width="50" height="50" relative="1" as="geometry">
            <mxPoint x="59.5" y="510" as="sourcePoint" />
            <mxPoint x="59.5" y="540" as="targetPoint" />
          </mxGeometry>
        </mxCell>
        <mxCell id="yUjiA-JmrCVDI_Teasnt-104" value="" style="endArrow=classic;html=1;rounded=0;exitX=0.5;exitY=1;exitDx=0;exitDy=0;" edge="1" parent="1" source="yUjiA-JmrCVDI_Teasnt-102">
          <mxGeometry width="50" height="50" relative="1" as="geometry">
            <mxPoint x="160" y="500" as="sourcePoint" />
            <mxPoint x="159.5" y="540" as="targetPoint" />
          </mxGeometry>
        </mxCell>
        <mxCell id="yUjiA-JmrCVDI_Teasnt-105" value="" style="endArrow=classic;html=1;rounded=0;" edge="1" parent="1">
          <mxGeometry width="50" height="50" relative="1" as="geometry">
            <mxPoint x="260" y="510" as="sourcePoint" />
            <mxPoint x="260" y="540" as="targetPoint" />
          </mxGeometry>
        </mxCell>
        <mxCell id="yUjiA-JmrCVDI_Teasnt-106" value="" style="endArrow=none;html=1;rounded=0;" edge="1" parent="1">
          <mxGeometry width="50" height="50" relative="1" as="geometry">
            <mxPoint x="60" y="510" as="sourcePoint" />
            <mxPoint x="260" y="510" as="targetPoint" />
          </mxGeometry>
        </mxCell>
        <mxCell id="yUjiA-JmrCVDI_Teasnt-108" value="" style="endArrow=classic;html=1;rounded=0;exitX=0.5;exitY=1;exitDx=0;exitDy=0;" edge="1" parent="1" source="yUjiA-JmrCVDI_Teasnt-16">
          <mxGeometry width="50" height="50" relative="1" as="geometry">
            <mxPoint x="59.5" y="660" as="sourcePoint" />
            <mxPoint x="59.5" y="690" as="targetPoint" />
          </mxGeometry>
        </mxCell>
        <mxCell id="yUjiA-JmrCVDI_Teasnt-109" value="" style="endArrow=classic;html=1;rounded=0;exitX=0.5;exitY=1;exitDx=0;exitDy=0;" edge="1" parent="1" source="yUjiA-JmrCVDI_Teasnt-17">
          <mxGeometry width="50" height="50" relative="1" as="geometry">
            <mxPoint x="259.5" y="660" as="sourcePoint" />
            <mxPoint x="259.5" y="690" as="targetPoint" />
          </mxGeometry>
        </mxCell>
        <mxCell id="yUjiA-JmrCVDI_Teasnt-111" value="" style="endArrow=classic;html=1;rounded=0;exitX=0.5;exitY=1;exitDx=0;exitDy=0;" edge="1" parent="1" source="et5guZH8IR5iMEiWxP18-16">
          <mxGeometry width="50" height="50" relative="1" as="geometry">
            <mxPoint x="159.5" y="660" as="sourcePoint" />
            <mxPoint x="159.5" y="690" as="targetPoint" />
          </mxGeometry>
        </mxCell>
        <mxCell id="yUjiA-JmrCVDI_Teasnt-152" value="" style="edgeStyle=orthogonalEdgeStyle;rounded=0;orthogonalLoop=1;jettySize=auto;html=1;entryX=0.25;entryY=0;entryDx=0;entryDy=0;" edge="1" parent="1" source="yUjiA-JmrCVDI_Teasnt-113" target="yUjiA-JmrCVDI_Teasnt-134">
          <mxGeometry relative="1" as="geometry">
            <Array as="points">
              <mxPoint x="160" y="780" />
              <mxPoint x="343" y="780" />
            </Array>
          </mxGeometry>
        </mxCell>
        <mxCell id="yUjiA-JmrCVDI_Teasnt-113" value="4" style="rounded=0;whiteSpace=wrap;html=1;" vertex="1" parent="1">
          <mxGeometry x="110" y="690" width="100" height="20" as="geometry" />
        </mxCell>
        <mxCell id="yUjiA-JmrCVDI_Teasnt-154" value="" style="edgeStyle=orthogonalEdgeStyle;rounded=0;orthogonalLoop=1;jettySize=auto;html=1;entryX=0.287;entryY=0;entryDx=0;entryDy=0;entryPerimeter=0;" edge="1" parent="1" source="yUjiA-JmrCVDI_Teasnt-114" target="yUjiA-JmrCVDI_Teasnt-5">
          <mxGeometry relative="1" as="geometry">
            <mxPoint x="76" y="800" as="targetPoint" />
            <Array as="points">
              <mxPoint x="60" y="760" />
              <mxPoint x="75" y="760" />
            </Array>
          </mxGeometry>
        </mxCell>
        <mxCell id="yUjiA-JmrCVDI_Teasnt-114" value="6" style="rounded=0;whiteSpace=wrap;html=1;" vertex="1" parent="1">
          <mxGeometry x="10" y="690" width="100" height="20" as="geometry" />
        </mxCell>
        <mxCell id="yUjiA-JmrCVDI_Teasnt-142" style="edgeStyle=orthogonalEdgeStyle;rounded=0;orthogonalLoop=1;jettySize=auto;html=1;" edge="1" parent="1" source="yUjiA-JmrCVDI_Teasnt-115" target="yUjiA-JmrCVDI_Teasnt-138">
          <mxGeometry relative="1" as="geometry">
            <Array as="points">
              <mxPoint x="260" y="740" />
              <mxPoint x="610" y="740" />
            </Array>
          </mxGeometry>
        </mxCell>
        <mxCell id="yUjiA-JmrCVDI_Teasnt-115" value="8" style="rounded=0;whiteSpace=wrap;html=1;" vertex="1" parent="1">
          <mxGeometry x="210" y="690" width="100" height="20" as="geometry" />
        </mxCell>
        <mxCell id="yUjiA-JmrCVDI_Teasnt-116" value="Shared placebo eligibility" style="rounded=0;whiteSpace=wrap;html=1;" vertex="1" parent="1">
          <mxGeometry x="340" y="540" width="120" height="40" as="geometry" />
        </mxCell>
        <mxCell id="yUjiA-JmrCVDI_Teasnt-117" value="TXA-127" style="rounded=0;whiteSpace=wrap;html=1;" vertex="1" parent="1">
          <mxGeometry x="340" y="580" width="120" height="20" as="geometry" />
        </mxCell>
        <mxCell id="yUjiA-JmrCVDI_Teasnt-118" value="TRV-027" style="rounded=0;whiteSpace=wrap;html=1;" vertex="1" parent="1">
          <mxGeometry x="340" y="600" width="120" height="20" as="geometry" />
        </mxCell>
        <mxCell id="yUjiA-JmrCVDI_Teasnt-119" value="Fostamatinib" style="rounded=0;whiteSpace=wrap;html=1;" vertex="1" parent="1">
          <mxGeometry x="340" y="620" width="120" height="20" as="geometry" />
        </mxCell>
        <mxCell id="yUjiA-JmrCVDI_Teasnt-120" value="All three trials" style="rounded=0;whiteSpace=wrap;html=1;" vertex="1" parent="1">
          <mxGeometry x="340" y="640" width="120" height="20" as="geometry" />
        </mxCell>
        <mxCell id="yUjiA-JmrCVDI_Teasnt-121" value="" style="endArrow=classic;html=1;rounded=0;" edge="1" parent="1">
          <mxGeometry width="50" height="50" relative="1" as="geometry">
            <mxPoint x="539.25" y="510" as="sourcePoint" />
            <mxPoint x="539.25" y="540" as="targetPoint" />
          </mxGeometry>
        </mxCell>
        <mxCell id="yUjiA-JmrCVDI_Teasnt-122" value="" style="endArrow=classic;html=1;rounded=0;" edge="1" parent="1">
          <mxGeometry width="50" height="50" relative="1" as="geometry">
            <mxPoint x="739.75" y="510" as="sourcePoint" />
            <mxPoint x="739.75" y="540" as="targetPoint" />
          </mxGeometry>
        </mxCell>
        <mxCell id="yUjiA-JmrCVDI_Teasnt-123" value="" style="endArrow=none;html=1;rounded=0;" edge="1" parent="1">
          <mxGeometry width="50" height="50" relative="1" as="geometry">
            <mxPoint x="539.75" y="510" as="sourcePoint" />
            <mxPoint x="739.75" y="510" as="targetPoint" />
          </mxGeometry>
        </mxCell>
        <mxCell id="yUjiA-JmrCVDI_Teasnt-128" value="" style="endArrow=classic;html=1;rounded=0;" edge="1" parent="1">
          <mxGeometry width="50" height="50" relative="1" as="geometry">
            <mxPoint x="539.5" y="660" as="sourcePoint" />
            <mxPoint x="539.5" y="690" as="targetPoint" />
          </mxGeometry>
        </mxCell>
        <mxCell id="yUjiA-JmrCVDI_Teasnt-131" value="" style="endArrow=classic;html=1;rounded=0;" edge="1" parent="1">
          <mxGeometry width="50" height="50" relative="1" as="geometry">
            <mxPoint x="639.5" y="660" as="sourcePoint" />
            <mxPoint x="639.5" y="690" as="targetPoint" />
          </mxGeometry>
        </mxCell>
        <mxCell id="yUjiA-JmrCVDI_Teasnt-132" value="" style="endArrow=classic;html=1;rounded=0;" edge="1" parent="1">
          <mxGeometry width="50" height="50" relative="1" as="geometry">
            <mxPoint x="739.5" y="660" as="sourcePoint" />
            <mxPoint x="739.5" y="690" as="targetPoint" />
          </mxGeometry>
        </mxCell>
        <mxCell id="yUjiA-JmrCVDI_Teasnt-134" value="" style="rounded=1;whiteSpace=wrap;html=1;dashed=1;" vertex="1" parent="1">
          <mxGeometry x="285" y="810" width="230" height="90" as="geometry" />
        </mxCell>
        <mxCell id="yUjiA-JmrCVDI_Teasnt-135" value="&lt;font style=&quot;font-size: 12px;&quot;&gt;Placebo&lt;/font&gt;&lt;div&gt;&lt;font style=&quot;font-size: 12px;&quot;&gt;TRV-027&lt;br&gt;&lt;b&gt;145&lt;/b&gt;&lt;/font&gt;&lt;/div&gt;" style="rounded=0;whiteSpace=wrap;html=1;" vertex="1" parent="1">
          <mxGeometry x="405" y="830" width="100" height="50" as="geometry" />
        </mxCell>
        <mxCell id="yUjiA-JmrCVDI_Teasnt-136" value="TRV-027&lt;span style=&quot;background-color: initial;&quot;&gt;&amp;nbsp;Trial Analysis&lt;/span&gt;" style="text;html=1;strokeColor=none;fillColor=none;align=center;verticalAlign=middle;whiteSpace=wrap;rounded=0;dashed=1;" vertex="1" parent="1">
          <mxGeometry x="325" y="880" width="150" height="20" as="geometry" />
        </mxCell>
        <mxCell id="yUjiA-JmrCVDI_Teasnt-137" value="&lt;div style=&quot;&quot;&gt;&lt;span style=&quot;background-color: initial;&quot;&gt;Active&lt;/span&gt;&lt;/div&gt;&lt;div style=&quot;&quot;&gt;&lt;span style=&quot;background-color: initial;&quot;&gt;TRV-027&lt;/span&gt;&lt;/div&gt;&lt;div style=&quot;&quot;&gt;&lt;b&gt;145&lt;/b&gt;&lt;/div&gt;" style="rounded=0;whiteSpace=wrap;html=1;align=center;" vertex="1" parent="1">
          <mxGeometry x="295" y="830" width="100" height="50" as="geometry" />
        </mxCell>
        <mxCell id="yUjiA-JmrCVDI_Teasnt-138" value="" style="rounded=1;whiteSpace=wrap;html=1;dashed=1;" vertex="1" parent="1">
          <mxGeometry x="550" y="810" width="230" height="90" as="geometry" />
        </mxCell>
        <mxCell id="yUjiA-JmrCVDI_Teasnt-139" value="&lt;font style=&quot;font-size: 12px;&quot;&gt;Placebo Fostamatinib&lt;br&gt;&lt;b&gt;201&lt;/b&gt;&lt;br&gt;&lt;/font&gt;" style="rounded=0;whiteSpace=wrap;html=1;" vertex="1" parent="1">
          <mxGeometry x="670" y="830" width="100" height="50" as="geometry" />
        </mxCell>
        <mxCell id="yUjiA-JmrCVDI_Teasnt-140" value="Fostamatinib Trial Analysis" style="text;html=1;strokeColor=none;fillColor=none;align=center;verticalAlign=middle;whiteSpace=wrap;rounded=0;dashed=1;" vertex="1" parent="1">
          <mxGeometry x="590" y="880" width="150" height="20" as="geometry" />
        </mxCell>
        <mxCell id="yUjiA-JmrCVDI_Teasnt-141" value="&lt;div style=&quot;&quot;&gt;&lt;span style=&quot;background-color: initial;&quot;&gt;Active Fostamatinib&lt;/span&gt;&lt;/div&gt;&lt;div style=&quot;&quot;&gt;&lt;b&gt;199&lt;/b&gt;&lt;/div&gt;" style="rounded=0;whiteSpace=wrap;html=1;align=center;" vertex="1" parent="1">
          <mxGeometry x="560" y="830" width="100" height="50" as="geometry" />
        </mxCell>
        <mxCell id="yUjiA-JmrCVDI_Teasnt-156" value="" style="endArrow=classic;html=1;rounded=0;exitX=0.5;exitY=1;exitDx=0;exitDy=0;" edge="1" parent="1" source="yUjiA-JmrCVDI_Teasnt-15">
          <mxGeometry width="50" height="50" relative="1" as="geometry">
            <mxPoint x="639.5" y="510" as="sourcePoint" />
            <mxPoint x="639.5" y="540" as="targetPoint" />
          </mxGeometry>
        </mxCell>
        <mxCell id="yUjiA-JmrCVDI_Teasnt-158" style="edgeStyle=orthogonalEdgeStyle;rounded=0;orthogonalLoop=1;jettySize=auto;html=1;" edge="1" parent="1" source="yUjiA-JmrCVDI_Teasnt-101">
          <mxGeometry relative="1" as="geometry">
            <mxPoint x="720" y="810" as="targetPoint" />
            <Array as="points">
              <mxPoint x="740" y="740" />
              <mxPoint x="721" y="740" />
            </Array>
          </mxGeometry>
        </mxCell>
      </root>
    </mxGraphModel>
  </diagram>
</mxfile>
